<mxfile host="app.diagrams.net" modified="2024-01-04T17:09:17.106Z" agent="Mozilla/5.0 (Windows NT 10.0; Win64; x64) AppleWebKit/537.36 (KHTML, like Gecko) Chrome/120.0.0.0 Safari/537.36" etag="VjDMA0jI_XiYf5n3si1I" version="22.1.16" type="onedrive">
  <diagram name="Page-1" id="rMAoHf-wIj7KzJck9-UM">
    <mxGraphModel grid="1" page="1" gridSize="10" guides="1" tooltips="1" connect="1" arrows="1" fold="1" pageScale="1" pageWidth="827" pageHeight="1169" math="0" shadow="0">
      <root>
        <mxCell id="0" />
        <mxCell id="1" parent="0" />
        <mxCell id="Y6lYQcWZ7hb8fJEgUK95-2" style="edgeStyle=orthogonalEdgeStyle;rounded=0;orthogonalLoop=1;jettySize=auto;html=1;exitX=1;exitY=0.5;exitDx=0;exitDy=0;" edge="1" parent="1" source="GJyvk0EuF5OCGgXkt5ju-36" target="Y6lYQcWZ7hb8fJEgUK95-3">
          <mxGeometry relative="1" as="geometry">
            <mxPoint x="408" y="260" as="targetPoint" />
          </mxGeometry>
        </mxCell>
        <mxCell id="Y6lYQcWZ7hb8fJEgUK95-1" value="Anual&lt;br/&gt;ReportV4.docm opened" style="rounded=0;whiteSpace=wrap;html=1;fillColor=#f5f5f5;fontColor=#333333;strokeColor=#666666;" vertex="1" parent="1">
          <mxGeometry x="50" y="240" width="136" height="60" as="geometry" />
        </mxCell>
        <mxCell id="Y6lYQcWZ7hb8fJEgUK95-4" style="edgeStyle=orthogonalEdgeStyle;rounded=0;orthogonalLoop=1;jettySize=auto;html=1;exitX=1;exitY=0.5;exitDx=0;exitDy=0;" edge="1" parent="1" source="Y6lYQcWZ7hb8fJEgUK95-3" target="Y6lYQcWZ7hb8fJEgUK95-5">
          <mxGeometry relative="1" as="geometry">
            <mxPoint x="570.5" y="350.5" as="targetPoint" />
          </mxGeometry>
        </mxCell>
        <mxCell id="Y6lYQcWZ7hb8fJEgUK95-3" value="Strings Deobfuscated" style="rounded=1;whiteSpace=wrap;html=1;fillColor=#dae8fc;strokeColor=#6c8ebf;" vertex="1" parent="1">
          <mxGeometry x="390" y="240.5" width="120" height="60" as="geometry" />
        </mxCell>
        <mxCell id="Y6lYQcWZ7hb8fJEgUK95-6" style="edgeStyle=orthogonalEdgeStyle;rounded=0;orthogonalLoop=1;jettySize=auto;html=1;exitX=1;exitY=0.5;exitDx=0;exitDy=0;" edge="1" parent="1" source="Y6lYQcWZ7hb8fJEgUK95-5" target="Y6lYQcWZ7hb8fJEgUK95-7">
          <mxGeometry relative="1" as="geometry">
            <mxPoint x="570.5" y="420.5" as="targetPoint" />
          </mxGeometry>
        </mxCell>
        <mxCell id="Y6lYQcWZ7hb8fJEgUK95-5" value="&lt;b&gt;GET&lt;/b&gt; requests on &lt;b&gt;port 8000&lt;/b&gt; are sent to &lt;b&gt;10.0.2.4&lt;/b&gt;&amp;nbsp;for &lt;b&gt;ms457.exe&lt;/b&gt; and &lt;b&gt;12152021_17_59_52.ps1&lt;/b&gt; and they are saved to&amp;nbsp;&lt;b&gt;C:\Windows\Temp\&amp;nbsp;&lt;/b&gt;" style="rounded=1;whiteSpace=wrap;html=1;fillColor=#dae8fc;strokeColor=#6c8ebf;" vertex="1" parent="1">
          <mxGeometry x="552.5" y="230.5" width="220" height="80" as="geometry" />
        </mxCell>
        <mxCell id="Y6lYQcWZ7hb8fJEgUK95-8" style="edgeStyle=orthogonalEdgeStyle;rounded=0;orthogonalLoop=1;jettySize=auto;html=1;exitX=0.5;exitY=1;exitDx=0;exitDy=0;" edge="1" parent="1" source="Y6lYQcWZ7hb8fJEgUK95-7" target="Y6lYQcWZ7hb8fJEgUK95-9">
          <mxGeometry relative="1" as="geometry">
            <mxPoint x="408" y="510" as="targetPoint" />
          </mxGeometry>
        </mxCell>
        <mxCell id="Y6lYQcWZ7hb8fJEgUK95-7" value="The script is ran and alters .exe&#39;s &lt;b&gt;e_lfanew,&lt;/b&gt;&amp;nbsp;saves it to &lt;b&gt;%Appdata%\MSUpdate.exe&lt;/b&gt; and runs it." style="rounded=1;whiteSpace=wrap;html=1;fillColor=#dae8fc;strokeColor=#6c8ebf;" vertex="1" parent="1">
          <mxGeometry x="792.5" y="240.5" width="160" height="60" as="geometry" />
        </mxCell>
        <mxCell id="Y6lYQcWZ7hb8fJEgUK95-10" style="edgeStyle=orthogonalEdgeStyle;rounded=0;orthogonalLoop=1;jettySize=auto;html=1;exitX=1;exitY=0.5;exitDx=0;exitDy=0;" edge="1" parent="1" source="Y6lYQcWZ7hb8fJEgUK95-9" target="Y6lYQcWZ7hb8fJEgUK95-11">
          <mxGeometry relative="1" as="geometry">
            <mxPoint x="200" y="370" as="targetPoint" />
          </mxGeometry>
        </mxCell>
        <mxCell id="Y6lYQcWZ7hb8fJEgUK95-9" value="MSUpdate.exe (or random named exe) ran" style="rounded=0;whiteSpace=wrap;html=1;fillColor=#f5f5f5;fontColor=#333333;strokeColor=#666666;" vertex="1" parent="1">
          <mxGeometry x="50" y="340" width="120" height="60" as="geometry" />
        </mxCell>
        <mxCell id="Y6lYQcWZ7hb8fJEgUK95-12" style="edgeStyle=orthogonalEdgeStyle;rounded=0;orthogonalLoop=1;jettySize=auto;html=1;exitX=1;exitY=0.5;exitDx=0;exitDy=0;" edge="1" parent="1" source="Y6lYQcWZ7hb8fJEgUK95-11" target="Y6lYQcWZ7hb8fJEgUK95-13">
          <mxGeometry relative="1" as="geometry">
            <mxPoint x="380" y="370" as="targetPoint" />
          </mxGeometry>
        </mxCell>
        <mxCell id="Y6lYQcWZ7hb8fJEgUK95-11" value="First unpacker decrypts and runs second unpacker passing information through the stack" style="rounded=1;whiteSpace=wrap;html=1;fillColor=#ffe6cc;strokeColor=#d79b00;" vertex="1" parent="1">
          <mxGeometry x="205" y="340" width="150" height="60" as="geometry" />
        </mxCell>
        <mxCell id="Y6lYQcWZ7hb8fJEgUK95-14" style="edgeStyle=orthogonalEdgeStyle;rounded=0;orthogonalLoop=1;jettySize=auto;html=1;exitX=1;exitY=0.5;exitDx=0;exitDy=0;" edge="1" parent="1" source="Y6lYQcWZ7hb8fJEgUK95-13" target="Y6lYQcWZ7hb8fJEgUK95-15">
          <mxGeometry relative="1" as="geometry">
            <mxPoint x="90" y="430" as="targetPoint" />
            <Array as="points">
              <mxPoint x="530" y="370" />
              <mxPoint x="530" y="410" />
              <mxPoint x="110" y="410" />
            </Array>
          </mxGeometry>
        </mxCell>
        <mxCell id="Y6lYQcWZ7hb8fJEgUK95-13" value="Second unpacker decrypts the malware payload and replaces the first unpacker with it" style="rounded=1;whiteSpace=wrap;html=1;fillColor=#ffe6cc;strokeColor=#d79b00;" vertex="1" parent="1">
          <mxGeometry x="376" y="340" width="134" height="60" as="geometry" />
        </mxCell>
        <mxCell id="Y6lYQcWZ7hb8fJEgUK95-16" style="edgeStyle=orthogonalEdgeStyle;rounded=0;orthogonalLoop=1;jettySize=auto;html=1;exitX=1;exitY=0.5;exitDx=0;exitDy=0;" edge="1" parent="1" source="Y6lYQcWZ7hb8fJEgUK95-15" target="Y6lYQcWZ7hb8fJEgUK95-17">
          <mxGeometry relative="1" as="geometry">
            <mxPoint x="200" y="479.28" as="targetPoint" />
          </mxGeometry>
        </mxCell>
        <mxCell id="Y6lYQcWZ7hb8fJEgUK95-15" value="Ransomware Payload Executed" style="rounded=0;whiteSpace=wrap;html=1;fillColor=#f5f5f5;fontColor=#333333;strokeColor=#666666;" vertex="1" parent="1">
          <mxGeometry x="50" y="449.28" width="120" height="60" as="geometry" />
        </mxCell>
        <mxCell id="Y6lYQcWZ7hb8fJEgUK95-18" style="edgeStyle=orthogonalEdgeStyle;rounded=0;orthogonalLoop=1;jettySize=auto;html=1;exitX=1;exitY=0.75;exitDx=0;exitDy=0;fillColor=#f5f5f5;strokeColor=#333333;entryX=0;entryY=0.5;entryDx=0;entryDy=0;" edge="1" parent="1" source="GJyvk0EuF5OCGgXkt5ju-31" target="Y6lYQcWZ7hb8fJEgUK95-9">
          <mxGeometry relative="1" as="geometry">
            <mxPoint x="90" y="569.28" as="targetPoint" />
            <Array as="points">
              <mxPoint x="644" y="510" />
              <mxPoint x="670" y="510" />
              <mxPoint x="670" y="550" />
              <mxPoint x="10" y="550" />
              <mxPoint x="10" y="370" />
            </Array>
          </mxGeometry>
        </mxCell>
        <mxCell id="GJyvk0EuF5OCGgXkt5ju-30" style="edgeStyle=orthogonalEdgeStyle;rounded=0;orthogonalLoop=1;jettySize=auto;html=1;exitX=1;exitY=0.25;exitDx=0;exitDy=0;entryX=0;entryY=0.25;entryDx=0;entryDy=0;" edge="1" parent="1" source="Y6lYQcWZ7hb8fJEgUK95-17" target="GJyvk0EuF5OCGgXkt5ju-31">
          <mxGeometry relative="1" as="geometry">
            <mxPoint x="580" y="487.16235294117655" as="targetPoint" />
          </mxGeometry>
        </mxCell>
        <mxCell id="GJyvk0EuF5OCGgXkt5ju-32" style="edgeStyle=orthogonalEdgeStyle;rounded=0;orthogonalLoop=1;jettySize=auto;html=1;exitX=1;exitY=0.75;exitDx=0;exitDy=0;entryX=0;entryY=0.5;entryDx=0;entryDy=0;" edge="1" parent="1" source="Y6lYQcWZ7hb8fJEgUK95-17" target="Y6lYQcWZ7hb8fJEgUK95-9">
          <mxGeometry relative="1" as="geometry">
            <Array as="points">
              <mxPoint x="400" y="506" />
              <mxPoint x="400" y="550" />
              <mxPoint x="10" y="550" />
              <mxPoint x="10" y="370" />
            </Array>
          </mxGeometry>
        </mxCell>
        <mxCell id="Y6lYQcWZ7hb8fJEgUK95-17" value="If the &lt;b&gt;integrity level&lt;/b&gt; is low the a new process is ran with the same executable using the &quot;&lt;b&gt;runas&lt;/b&gt;&quot; command." style="rounded=1;whiteSpace=wrap;html=1;fillColor=#d5e8d4;strokeColor=#82b366;" vertex="1" parent="1">
          <mxGeometry x="197.5" y="426.78" width="187" height="105" as="geometry" />
        </mxCell>
        <mxCell id="Y6lYQcWZ7hb8fJEgUK95-20" style="edgeStyle=orthogonalEdgeStyle;rounded=0;orthogonalLoop=1;jettySize=auto;html=1;exitX=1;exitY=0.5;exitDx=0;exitDy=0;" edge="1" parent="1" source="Y6lYQcWZ7hb8fJEgUK95-19" target="Y6lYQcWZ7hb8fJEgUK95-21">
          <mxGeometry relative="1" as="geometry">
            <mxPoint x="190" y="617.28" as="targetPoint" />
          </mxGeometry>
        </mxCell>
        <mxCell id="Y6lYQcWZ7hb8fJEgUK95-19" value="Current Process continues" style="rounded=0;whiteSpace=wrap;html=1;fillColor=#f5f5f5;fontColor=#333333;strokeColor=#666666;" vertex="1" parent="1">
          <mxGeometry x="50" y="587.28" width="120" height="60" as="geometry" />
        </mxCell>
        <mxCell id="Y6lYQcWZ7hb8fJEgUK95-22" style="edgeStyle=orthogonalEdgeStyle;rounded=0;orthogonalLoop=1;jettySize=auto;html=1;exitX=1;exitY=0.5;exitDx=0;exitDy=0;" edge="1" parent="1" source="Y6lYQcWZ7hb8fJEgUK95-21" target="Y6lYQcWZ7hb8fJEgUK95-23">
          <mxGeometry relative="1" as="geometry">
            <mxPoint x="400" y="617.28" as="targetPoint" />
          </mxGeometry>
        </mxCell>
        <mxCell id="Y6lYQcWZ7hb8fJEgUK95-21" value="Registry is altered so the malware will &lt;b&gt;run at start-up&lt;/b&gt; and attempts to make it so &lt;b&gt;elevated processes&lt;/b&gt; can see &lt;b&gt;symbolic links&lt;/b&gt;" style="rounded=1;whiteSpace=wrap;html=1;fillColor=#f8cecc;strokeColor=#b85450;" vertex="1" parent="1">
          <mxGeometry x="193" y="579.28" width="174" height="75" as="geometry" />
        </mxCell>
        <mxCell id="Y6lYQcWZ7hb8fJEgUK95-24" style="edgeStyle=orthogonalEdgeStyle;rounded=0;orthogonalLoop=1;jettySize=auto;html=1;exitX=1;exitY=0.5;exitDx=0;exitDy=0;" edge="1" parent="1" source="Y6lYQcWZ7hb8fJEgUK95-23" target="Y6lYQcWZ7hb8fJEgUK95-25">
          <mxGeometry relative="1" as="geometry">
            <mxPoint x="560" y="617.28" as="targetPoint" />
          </mxGeometry>
        </mxCell>
        <mxCell id="Y6lYQcWZ7hb8fJEgUK95-23" value="A mutex called&amp;nbsp;&lt;b&gt;ityeofm9234-23423&lt;/b&gt; is created so only one instance can be ran at a time." style="rounded=1;whiteSpace=wrap;html=1;fillColor=#f8cecc;strokeColor=#b85450;" vertex="1" parent="1">
          <mxGeometry x="400" y="579.28" width="130" height="75" as="geometry" />
        </mxCell>
        <mxCell id="Y6lYQcWZ7hb8fJEgUK95-26" style="edgeStyle=orthogonalEdgeStyle;rounded=0;orthogonalLoop=1;jettySize=auto;html=1;exitX=1;exitY=0.5;exitDx=0;exitDy=0;" edge="1" parent="1" source="Y6lYQcWZ7hb8fJEgUK95-25" target="Y6lYQcWZ7hb8fJEgUK95-27">
          <mxGeometry relative="1" as="geometry">
            <mxPoint x="910" y="617.28" as="targetPoint" />
          </mxGeometry>
        </mxCell>
        <mxCell id="Y6lYQcWZ7hb8fJEgUK95-25" value="The registry location:&lt;br&gt;&amp;nbsp;&lt;b&gt;HKEY_CURRENT_USER\Software\xxxsys\&quot;ID&quot;&lt;/b&gt; &lt;br&gt;is populated with 8 random bytes (if it doesn&#39;t already exist)" style="rounded=1;whiteSpace=wrap;html=1;fillColor=#f8cecc;strokeColor=#b85450;" vertex="1" parent="1">
          <mxGeometry x="550" y="594.28" width="330" height="45" as="geometry" />
        </mxCell>
        <mxCell id="Y6lYQcWZ7hb8fJEgUK95-28" style="edgeStyle=orthogonalEdgeStyle;rounded=0;orthogonalLoop=1;jettySize=auto;html=1;exitX=0.5;exitY=1;exitDx=0;exitDy=0;" edge="1" parent="1" source="Y6lYQcWZ7hb8fJEgUK95-27" target="Y6lYQcWZ7hb8fJEgUK95-29">
          <mxGeometry relative="1" as="geometry">
            <mxPoint x="70" y="692.28" as="targetPoint" />
          </mxGeometry>
        </mxCell>
        <mxCell id="Y6lYQcWZ7hb8fJEgUK95-27" value="The registry location:&lt;br&gt;&lt;b&gt;HKEY_CURRENT_USER\Software\{8_RANDOM_HEX}\&quot;data&quot;&lt;/b&gt;&lt;br&gt;is populated with the &lt;b&gt;Bitcoin address&lt;/b&gt;, &lt;b&gt;recovery information&lt;/b&gt;, &lt;b&gt;public key&lt;/b&gt; and &lt;b&gt;time of infection&lt;/b&gt;" style="rounded=1;whiteSpace=wrap;html=1;fillColor=#f8cecc;strokeColor=#b85450;" vertex="1" parent="1">
          <mxGeometry x="910" y="587.28" width="350" height="60" as="geometry" />
        </mxCell>
        <mxCell id="Y6lYQcWZ7hb8fJEgUK95-30" style="edgeStyle=orthogonalEdgeStyle;rounded=0;orthogonalLoop=1;jettySize=auto;html=1;exitX=0.5;exitY=1;exitDx=0;exitDy=0;" edge="1" parent="1" source="Y6lYQcWZ7hb8fJEgUK95-29" target="Y6lYQcWZ7hb8fJEgUK95-31">
          <mxGeometry relative="1" as="geometry">
            <mxPoint x="272.5" y="782.28" as="targetPoint" />
          </mxGeometry>
        </mxCell>
        <mxCell id="Y6lYQcWZ7hb8fJEgUK95-33" style="edgeStyle=orthogonalEdgeStyle;rounded=0;orthogonalLoop=1;jettySize=auto;html=1;exitX=0;exitY=0.5;exitDx=0;exitDy=0;" edge="1" parent="1" source="Y6lYQcWZ7hb8fJEgUK95-29" target="Y6lYQcWZ7hb8fJEgUK95-34">
          <mxGeometry relative="1" as="geometry">
            <mxPoint x="470" y="822.28" as="targetPoint" />
            <Array as="points">
              <mxPoint x="150" y="722.28" />
              <mxPoint x="150" y="902.28" />
            </Array>
          </mxGeometry>
        </mxCell>
        <mxCell id="Y6lYQcWZ7hb8fJEgUK95-35" style="edgeStyle=orthogonalEdgeStyle;rounded=0;orthogonalLoop=1;jettySize=auto;html=1;exitX=1;exitY=0.5;exitDx=0;exitDy=0;" edge="1" parent="1" source="Y6lYQcWZ7hb8fJEgUK95-29" target="Y6lYQcWZ7hb8fJEgUK95-36">
          <mxGeometry relative="1" as="geometry">
            <mxPoint x="410" y="722.28" as="targetPoint" />
          </mxGeometry>
        </mxCell>
        <mxCell id="Y6lYQcWZ7hb8fJEgUK95-29" value="An &lt;b&gt;AES-128-CBC session key&lt;/b&gt; is generated with the information generated previously" style="rounded=1;whiteSpace=wrap;html=1;fillColor=#f8cecc;strokeColor=#b85450;" vertex="1" parent="1">
          <mxGeometry x="197.5" y="692.28" width="150" height="60" as="geometry" />
        </mxCell>
        <mxCell id="Y6lYQcWZ7hb8fJEgUK95-31" value="A thread is started that perpetually tries to kill processes that contain&amp;nbsp;&lt;b&gt;&quot;askmg&quot;&lt;/b&gt;, &lt;b&gt;&quot;rocex&quot;&lt;/b&gt;,&lt;b&gt;&amp;nbsp;&lt;/b&gt;&lt;span style=&quot;border-color: var(--border-color);&quot;&gt;&lt;b&gt;&quot;egedi&quot;&lt;/b&gt;,&amp;nbsp;&lt;/span&gt;&lt;span style=&quot;border-color: var(--border-color);&quot;&gt;&lt;b&gt;&quot;sconfi&quot;&lt;/b&gt; and&amp;nbsp;&lt;/span&gt;&lt;span style=&quot;border-color: var(--border-color);&quot;&gt;&lt;b&gt;&quot;cmd&quot;&lt;/b&gt;&lt;/span&gt;" style="rounded=1;whiteSpace=wrap;html=1;fillColor=#CCCCCC;strokeColor=#666666;fontColor=#333333;" vertex="1" parent="1">
          <mxGeometry x="165" y="782.28" width="215" height="60" as="geometry" />
        </mxCell>
        <mxCell id="Y6lYQcWZ7hb8fJEgUK95-32" style="edgeStyle=orthogonalEdgeStyle;rounded=0;orthogonalLoop=1;jettySize=auto;html=1;exitX=0.5;exitY=1;exitDx=0;exitDy=0;entryX=0.5;entryY=0;entryDx=0;entryDy=0;" edge="1" parent="1" source="Y6lYQcWZ7hb8fJEgUK95-31" target="Y6lYQcWZ7hb8fJEgUK95-31">
          <mxGeometry relative="1" as="geometry">
            <Array as="points">
              <mxPoint x="273" y="862.28" />
              <mxPoint x="390" y="862.28" />
              <mxPoint x="390" y="762.28" />
              <mxPoint x="273" y="762.28" />
            </Array>
          </mxGeometry>
        </mxCell>
        <mxCell id="Y6lYQcWZ7hb8fJEgUK95-34" value="A thread is started that removes shadow copies with the command (as long as the operating system &lt;b&gt;isn&#39;t&lt;/b&gt; &lt;b&gt;Windows XP&lt;/b&gt;):&lt;br&gt;&lt;b&gt;wmic.exe shadowcopy delete /noninteractive&lt;/b&gt;" style="rounded=1;whiteSpace=wrap;html=1;fillColor=#e1d5e7;strokeColor=#9673a6;" vertex="1" parent="1">
          <mxGeometry x="165" y="869.28" width="241.25" height="77" as="geometry" />
        </mxCell>
        <mxCell id="Y6lYQcWZ7hb8fJEgUK95-37" style="edgeStyle=orthogonalEdgeStyle;rounded=0;orthogonalLoop=1;jettySize=auto;html=1;exitX=1;exitY=0.5;exitDx=0;exitDy=0;" edge="1" parent="1" source="Y6lYQcWZ7hb8fJEgUK95-36" target="Y6lYQcWZ7hb8fJEgUK95-38">
          <mxGeometry relative="1" as="geometry">
            <mxPoint x="600" y="722.28" as="targetPoint" />
          </mxGeometry>
        </mxCell>
        <mxCell id="Y6lYQcWZ7hb8fJEgUK95-36" value="Internal strings are &lt;b&gt;decrypted&lt;/b&gt; containing &lt;b&gt;file extensions&lt;/b&gt; to be encrypted, address of &lt;b&gt;C&amp;amp;C servers&lt;/b&gt; and parts of &lt;b&gt;ransom messages&lt;/b&gt;" style="rounded=1;whiteSpace=wrap;html=1;fillColor=#f8cecc;strokeColor=#b85450;" vertex="1" parent="1">
          <mxGeometry x="400" y="682.28" width="170" height="80" as="geometry" />
        </mxCell>
        <mxCell id="GJyvk0EuF5OCGgXkt5ju-1" style="edgeStyle=orthogonalEdgeStyle;rounded=0;orthogonalLoop=1;jettySize=auto;html=1;exitX=0.5;exitY=1;exitDx=0;exitDy=0;" edge="1" parent="1" source="Y6lYQcWZ7hb8fJEgUK95-38" target="GJyvk0EuF5OCGgXkt5ju-2">
          <mxGeometry relative="1" as="geometry">
            <mxPoint x="765" y="792.28" as="targetPoint" />
          </mxGeometry>
        </mxCell>
        <mxCell id="GJyvk0EuF5OCGgXkt5ju-5" style="edgeStyle=orthogonalEdgeStyle;rounded=0;orthogonalLoop=1;jettySize=auto;html=1;exitX=1;exitY=0.5;exitDx=0;exitDy=0;entryX=0.5;entryY=0;entryDx=0;entryDy=0;" edge="1" parent="1" source="Y6lYQcWZ7hb8fJEgUK95-38" target="GJyvk0EuF5OCGgXkt5ju-7">
          <mxGeometry relative="1" as="geometry">
            <mxPoint x="110" y="982.28" as="targetPoint" />
            <Array as="points">
              <mxPoint x="980" y="722.28" />
              <mxPoint x="980" y="962.28" />
              <mxPoint x="110" y="962.28" />
            </Array>
          </mxGeometry>
        </mxCell>
        <mxCell id="Y6lYQcWZ7hb8fJEgUK95-38" value="A file with the path:&lt;br&gt;&lt;b&gt;&lt;font color=&quot;#333333&quot;&gt;%Documents%&lt;/font&gt;\recovery_file_{9_random_lowchars}.txt&lt;/b&gt;&lt;br&gt;is created with the &lt;b&gt;Bitcoin address&lt;/b&gt;, &lt;b&gt;recovery information&lt;/b&gt;, &lt;b&gt;random id&lt;/b&gt; in xxxsys\&quot;ID&quot; and the &lt;b&gt;checksum &lt;/b&gt;of the current executable" style="rounded=1;whiteSpace=wrap;html=1;fillColor=#f8cecc;strokeColor=#b85450;" vertex="1" parent="1">
          <mxGeometry x="600" y="682.28" width="330" height="80" as="geometry" />
        </mxCell>
        <mxCell id="GJyvk0EuF5OCGgXkt5ju-3" style="edgeStyle=orthogonalEdgeStyle;rounded=0;orthogonalLoop=1;jettySize=auto;html=1;exitX=0.5;exitY=1;exitDx=0;exitDy=0;" edge="1" parent="1" source="GJyvk0EuF5OCGgXkt5ju-2" target="GJyvk0EuF5OCGgXkt5ju-4">
          <mxGeometry relative="1" as="geometry">
            <mxPoint x="765" y="882.28" as="targetPoint" />
          </mxGeometry>
        </mxCell>
        <mxCell id="GJyvk0EuF5OCGgXkt5ju-2" value="A thread is started (if its the first execution) that sends encrypted data to C&amp;amp;C servers using a &lt;b&gt;POST &lt;/b&gt;request on &lt;b&gt;port 80&lt;/b&gt; which decrypts to the format:&lt;br&gt;&lt;div style=&quot;border-color: var(--border-color);&quot;&gt;&lt;font style=&quot;border-color: var(--border-color); font-size: 14px;&quot; color=&quot;#50a14f&quot; face=&quot;Consolas&quot;&gt;&quot;Sub=&lt;/font&gt;&lt;font color=&quot;#986801&quot; style=&quot;border-color: var(--border-color); font-size: 14px;&quot; face=&quot;Consolas&quot;&gt;Ping&lt;/font&gt;&lt;span style=&quot;border-color: var(--border-color); background-color: initial; font-family: Consolas, &amp;quot;Courier New&amp;quot;, monospace; font-size: 14px; color: rgb(80, 161, 79);&quot;&gt;&amp;amp;dh=&lt;/span&gt;&lt;span style=&quot;border-color: var(--border-color); background-color: initial; font-family: Consolas, &amp;quot;Courier New&amp;quot;, monospace; font-size: 14px;&quot;&gt;&lt;font color=&quot;#986801&quot;&gt;{RECOVERY_INFO}&lt;/font&gt;&lt;/span&gt;&lt;span style=&quot;border-color: var(--border-color); background-color: initial; font-family: Consolas, &amp;quot;Courier New&amp;quot;, monospace; font-size: 14px; color: rgb(80, 161, 79);&quot;&gt;&amp;amp;addr=&lt;/span&gt;&lt;span style=&quot;border-color: var(--border-color); background-color: initial; font-family: Consolas, &amp;quot;Courier New&amp;quot;, monospace; font-size: 14px;&quot;&gt;&lt;font color=&quot;#986801&quot;&gt;{BTC_ADDR}&lt;/font&gt;&lt;/span&gt;&lt;span style=&quot;border-color: var(--border-color); background-color: initial; font-family: Consolas, &amp;quot;Courier New&amp;quot;, monospace; font-size: 14px; color: rgb(80, 161, 79);&quot;&gt;&amp;amp;size=&lt;/span&gt;&lt;span style=&quot;border-color: var(--border-color); background-color: initial; font-family: Consolas, &amp;quot;Courier New&amp;quot;, monospace; font-size: 14px; color: rgb(152, 104, 1);&quot;&gt;{TOTAL_ENCRYPTED}&lt;/span&gt;&lt;span style=&quot;border-color: var(--border-color); background-color: initial; font-family: Consolas, &amp;quot;Courier New&amp;quot;, monospace; font-size: 14px; color: rgb(80, 161, 79);&quot;&gt;&amp;amp;version=&lt;/span&gt;&lt;span style=&quot;border-color: var(--border-color); background-color: initial; font-family: Consolas, &amp;quot;Courier New&amp;quot;, monospace; font-size: 14px; color: rgb(152, 104, 1);&quot;&gt;{MALWARE_VERSION}&lt;/span&gt;&lt;/div&gt;&lt;div style=&quot;border-color: var(--border-color);&quot;&gt;&lt;span style=&quot;border-color: var(--border-color); background-color: initial; font-family: Consolas, &amp;quot;Courier New&amp;quot;, monospace; font-size: 14px; color: rgb(80, 161, 79);&quot;&gt;&amp;amp;OS=&lt;/span&gt;&lt;span style=&quot;border-color: var(--border-color); background-color: initial; font-family: Consolas, &amp;quot;Courier New&amp;quot;, monospace; font-size: 14px; color: rgb(152, 104, 1);&quot;&gt;{OS_ID}&lt;/span&gt;&lt;span style=&quot;border-color: var(--border-color); background-color: initial; font-family: Consolas, &amp;quot;Courier New&amp;quot;, monospace; font-size: 14px; color: rgb(80, 161, 79);&quot;&gt;&amp;amp;ID=&lt;/span&gt;&lt;span style=&quot;border-color: var(--border-color); background-color: initial; font-family: Consolas, &amp;quot;Courier New&amp;quot;, monospace; font-size: 14px; color: rgb(152, 104, 1);&quot;&gt;{CHKSUM}&lt;/span&gt;&lt;span style=&quot;border-color: var(--border-color); background-color: initial; font-family: Consolas, &amp;quot;Courier New&amp;quot;, monospace; font-size: 14px; color: rgb(80, 161, 79);&quot;&gt;&amp;amp;inst_id=&lt;/span&gt;&lt;span style=&quot;border-color: var(--border-color); background-color: initial; font-family: Consolas, &amp;quot;Courier New&amp;quot;, monospace; font-size: 14px; color: rgb(152, 104, 1);&quot;&gt;{MACHINE_ID}&lt;/span&gt;&lt;span style=&quot;border-color: var(--border-color); background-color: initial; font-family: Consolas, &amp;quot;Courier New&amp;quot;, monospace; font-size: 14px; color: rgb(80, 161, 79);&quot;&gt;&quot;&lt;/span&gt;&lt;/div&gt;" style="rounded=1;whiteSpace=wrap;html=1;fillColor=#d5e8d4;strokeColor=#82b366;" vertex="1" parent="1">
          <mxGeometry x="556.25" y="782.28" width="417.5" height="80" as="geometry" />
        </mxCell>
        <mxCell id="GJyvk0EuF5OCGgXkt5ju-4" value="The thread ends if it receives a message containing &lt;b&gt;&quot;INSERTED&quot; &lt;/b&gt;from one server." style="rounded=1;whiteSpace=wrap;html=1;fillColor=#d5e8d4;strokeColor=#82b366;" vertex="1" parent="1">
          <mxGeometry x="705" y="882.28" width="120" height="70" as="geometry" />
        </mxCell>
        <mxCell id="GJyvk0EuF5OCGgXkt5ju-8" style="edgeStyle=orthogonalEdgeStyle;rounded=0;orthogonalLoop=1;jettySize=auto;html=1;exitX=1;exitY=0.5;exitDx=0;exitDy=0;" edge="1" parent="1" source="GJyvk0EuF5OCGgXkt5ju-7" target="GJyvk0EuF5OCGgXkt5ju-9">
          <mxGeometry relative="1" as="geometry">
            <mxPoint x="210" y="1049.1499999999999" as="targetPoint" />
          </mxGeometry>
        </mxCell>
        <mxCell id="GJyvk0EuF5OCGgXkt5ju-7" value="A thread starts at IDLE that is used to encrypt the victim&#39;s files. The main thread waits until it is exited." style="rounded=1;whiteSpace=wrap;html=1;fillColor=#bac8d3;strokeColor=#23445d;" vertex="1" parent="1">
          <mxGeometry x="40" y="1009.15" width="140" height="80" as="geometry" />
        </mxCell>
        <mxCell id="GJyvk0EuF5OCGgXkt5ju-10" style="edgeStyle=orthogonalEdgeStyle;rounded=0;orthogonalLoop=1;jettySize=auto;html=1;exitX=1;exitY=0.5;exitDx=0;exitDy=0;" edge="1" parent="1" source="GJyvk0EuF5OCGgXkt5ju-9" target="GJyvk0EuF5OCGgXkt5ju-12">
          <mxGeometry relative="1" as="geometry">
            <mxPoint x="370" y="1049.1499999999999" as="targetPoint" />
          </mxGeometry>
        </mxCell>
        <mxCell id="GJyvk0EuF5OCGgXkt5ju-9" value="For each logical drive and network resource the directory is traversed recursively" style="rounded=1;whiteSpace=wrap;html=1;fillColor=#bac8d3;strokeColor=#23445d;" vertex="1" parent="1">
          <mxGeometry x="205" y="1014.15" width="132.5" height="70" as="geometry" />
        </mxCell>
        <mxCell id="GJyvk0EuF5OCGgXkt5ju-14" style="edgeStyle=orthogonalEdgeStyle;rounded=0;orthogonalLoop=1;jettySize=auto;html=1;exitX=1;exitY=0.5;exitDx=0;exitDy=0;" edge="1" parent="1" source="GJyvk0EuF5OCGgXkt5ju-12" target="GJyvk0EuF5OCGgXkt5ju-15">
          <mxGeometry relative="1" as="geometry">
            <mxPoint x="583.75" y="1031.65" as="targetPoint" />
          </mxGeometry>
        </mxCell>
        <mxCell id="GJyvk0EuF5OCGgXkt5ju-12" value="As long as the drive isn&#39;t &lt;b&gt;&quot;A:\&quot; &lt;/b&gt;or &lt;b&gt;&quot;B:\&quot;;&amp;nbsp;&lt;br&gt;&lt;/b&gt;the directory isn&#39;t &lt;b&gt;&quot;C:\Windows&quot;&lt;/b&gt;, &lt;b&gt;&quot;C:\Program Files (x86)&quot;&lt;/b&gt; or &lt;b&gt;&quot;C:\ProgramData&quot;;&amp;nbsp;&lt;br&gt;&lt;/b&gt;the file size is &lt;b&gt;greater &lt;/b&gt;than &lt;b&gt;32 B&lt;/b&gt; and &lt;b&gt;less &lt;/b&gt;than &lt;b&gt;313 MiB; &lt;br&gt;&lt;/b&gt;the file name doesn&#39;t contain &lt;b&gt;&quot;recove&quot;&lt;/b&gt; or &lt;b&gt;&quot;.mp3&quot;;&lt;/b&gt; &lt;br&gt;its &lt;b&gt;extension is in a whitelist;&lt;/b&gt;&lt;br&gt;and its &lt;b&gt;first byte&lt;/b&gt; isn&#39;t &lt;b&gt;0x00&lt;/b&gt; and&lt;b&gt; 24th byte&lt;/b&gt;&amp;nbsp;isn&#39;t &lt;b&gt;0x04,&lt;/b&gt;&amp;nbsp;its contents will be encrypted" style="rounded=1;whiteSpace=wrap;html=1;fillColor=#bac8d3;strokeColor=#23445d;" vertex="1" parent="1">
          <mxGeometry x="367" y="972.27" width="303" height="153.75" as="geometry" />
        </mxCell>
        <mxCell id="GJyvk0EuF5OCGgXkt5ju-16" style="edgeStyle=orthogonalEdgeStyle;rounded=0;orthogonalLoop=1;jettySize=auto;html=1;exitX=1;exitY=0.5;exitDx=0;exitDy=0;" edge="1" parent="1" source="GJyvk0EuF5OCGgXkt5ju-15" target="GJyvk0EuF5OCGgXkt5ju-17">
          <mxGeometry relative="1" as="geometry">
            <mxPoint x="990" y="1049.28" as="targetPoint" />
          </mxGeometry>
        </mxCell>
        <mxCell id="GJyvk0EuF5OCGgXkt5ju-15" value="The file contents is encrypted with the AES session key, generated previously. The encrypted file name is the same as the original with &lt;b&gt;&quot;.mp3&quot;&lt;/b&gt; appended." style="rounded=1;whiteSpace=wrap;html=1;fillColor=#bac8d3;strokeColor=#23445d;" vertex="1" parent="1">
          <mxGeometry x="700" y="1007.58" width="250" height="83.14" as="geometry" />
        </mxCell>
        <mxCell id="GJyvk0EuF5OCGgXkt5ju-18" style="edgeStyle=orthogonalEdgeStyle;rounded=0;orthogonalLoop=1;jettySize=auto;html=1;exitX=0.5;exitY=1;exitDx=0;exitDy=0;" edge="1" parent="1" source="GJyvk0EuF5OCGgXkt5ju-17" target="GJyvk0EuF5OCGgXkt5ju-19">
          <mxGeometry relative="1" as="geometry">
            <mxPoint x="80" y="1162.28" as="targetPoint" />
          </mxGeometry>
        </mxCell>
        <mxCell id="GJyvk0EuF5OCGgXkt5ju-17" value="The encrypted file starts with &lt;b&gt;null bytes&lt;/b&gt;, the &lt;b&gt;computer&#39;s ID&lt;/b&gt;, more &lt;b&gt;null bytes&lt;/b&gt;, the &lt;b&gt;recovery information (starting 0x04)&lt;/b&gt;, the &lt;b&gt;public key&lt;/b&gt;, the &lt;b&gt;session key data&lt;/b&gt;, the &lt;b&gt;encryption IV&lt;/b&gt; and &lt;b&gt;original file size&lt;/b&gt;. Then the &lt;b&gt;encrypted file contents&lt;/b&gt; is &lt;b&gt;appended &lt;/b&gt;to the end." style="rounded=1;whiteSpace=wrap;html=1;fillColor=#bac8d3;strokeColor=#23445d;" vertex="1" parent="1">
          <mxGeometry x="973.75" y="999.3" width="256.25" height="99.69" as="geometry" />
        </mxCell>
        <mxCell id="GJyvk0EuF5OCGgXkt5ju-20" style="edgeStyle=orthogonalEdgeStyle;rounded=0;orthogonalLoop=1;jettySize=auto;html=1;exitX=1;exitY=0.5;exitDx=0;exitDy=0;" edge="1" parent="1" source="GJyvk0EuF5OCGgXkt5ju-19" target="GJyvk0EuF5OCGgXkt5ju-21">
          <mxGeometry relative="1" as="geometry">
            <mxPoint x="350" y="1227.8094117647058" as="targetPoint" />
          </mxGeometry>
        </mxCell>
        <mxCell id="GJyvk0EuF5OCGgXkt5ju-19" value="Once the files in a directory are encrypted three ransom notes are created inside:&lt;br&gt;&lt;font style=&quot;border-color: var(--border-color); font-family: Consolas; font-size: 14px;&quot; color=&quot;#149446&quot;&gt;&quot;_RECOVERY_+{5_RAND_LOWERCHARS}&quot; .txt,&lt;/font&gt;&amp;nbsp;&lt;font style=&quot;border-color: var(--border-color); font-family: Consolas; font-size: 14px;&quot; color=&quot;#14945c&quot;&gt;.png&lt;/font&gt;&lt;span style=&quot;border-color: var(--border-color); font-family: Consolas; font-size: 14px;&quot;&gt;&amp;nbsp;and&amp;nbsp;&lt;/span&gt;&lt;font style=&quot;border-color: var(--border-color); font-family: Consolas; font-size: 14px;&quot; color=&quot;#149446&quot;&gt;.html &lt;/font&gt;&lt;font face=&quot;Helvetica&quot; style=&quot;border-color: var(--border-color); font-size: 12px;&quot;&gt;if the directory contains &lt;b&gt;&quot;Desktop&quot; or&lt;/b&gt;&amp;nbsp;&lt;b&gt;&quot;Public Desktop&quot;&lt;/b&gt; or is the &lt;b&gt;CD Burn Area &lt;/b&gt;these files aren&#39;t created.&lt;/font&gt;" style="rounded=1;whiteSpace=wrap;html=1;fillColor=#bac8d3;strokeColor=#23445d;" vertex="1" parent="1">
          <mxGeometry x="40" y="1182.28" width="270" height="100" as="geometry" />
        </mxCell>
        <mxCell id="GJyvk0EuF5OCGgXkt5ju-22" style="edgeStyle=orthogonalEdgeStyle;rounded=0;orthogonalLoop=1;jettySize=auto;html=1;exitX=1;exitY=0.5;exitDx=0;exitDy=0;entryX=0;entryY=0.5;entryDx=0;entryDy=0;" edge="1" parent="1" source="GJyvk0EuF5OCGgXkt5ju-21" target="GJyvk0EuF5OCGgXkt5ju-25">
          <mxGeometry relative="1" as="geometry">
            <mxPoint x="609.9999999999995" y="1231.3388235294117" as="targetPoint" />
            <Array as="points">
              <mxPoint x="595" y="1232.28" />
            </Array>
          </mxGeometry>
        </mxCell>
        <mxCell id="GJyvk0EuF5OCGgXkt5ju-21" value="Once all directories have been traversed the main thread continues and creates and opens three ransom notes on the&amp;nbsp;&lt;b&gt;Desktop&lt;/b&gt;:&lt;br&gt;&lt;b&gt;&quot;RECOVERY&quot;&lt;/b&gt; &lt;b&gt;.PNG&lt;/b&gt;, &lt;b&gt;.TXT&lt;/b&gt; and .&lt;b&gt;HTM &lt;/b&gt;with the same messages as the previous notes." style="rounded=1;whiteSpace=wrap;html=1;fillColor=#f8cecc;strokeColor=#b85450;" vertex="1" parent="1">
          <mxGeometry x="355" y="1177.28" width="225" height="110" as="geometry" />
        </mxCell>
        <mxCell id="GJyvk0EuF5OCGgXkt5ju-26" style="edgeStyle=orthogonalEdgeStyle;rounded=0;orthogonalLoop=1;jettySize=auto;html=1;exitX=1;exitY=0.5;exitDx=0;exitDy=0;" edge="1" parent="1" source="GJyvk0EuF5OCGgXkt5ju-25" target="GJyvk0EuF5OCGgXkt5ju-27">
          <mxGeometry relative="1" as="geometry">
            <mxPoint x="859.9999999999995" y="1232.5152941176473" as="targetPoint" />
          </mxGeometry>
        </mxCell>
        <mxCell id="GJyvk0EuF5OCGgXkt5ju-25" value="The shadow copy removal thread is started again and the main thread waits for its completion" style="rounded=1;whiteSpace=wrap;html=1;fillColor=#e1d5e7;strokeColor=#9673a6;" vertex="1" parent="1">
          <mxGeometry x="610" y="1202.28" width="222.5" height="60" as="geometry" />
        </mxCell>
        <mxCell id="GJyvk0EuF5OCGgXkt5ju-28" style="edgeStyle=orthogonalEdgeStyle;rounded=0;orthogonalLoop=1;jettySize=auto;html=1;exitX=1;exitY=0.5;exitDx=0;exitDy=0;" edge="1" parent="1" source="GJyvk0EuF5OCGgXkt5ju-27" target="GJyvk0EuF5OCGgXkt5ju-29">
          <mxGeometry relative="1" as="geometry">
            <mxPoint x="1009.9999999999995" y="1231.8682352941175" as="targetPoint" />
          </mxGeometry>
        </mxCell>
        <mxCell id="GJyvk0EuF5OCGgXkt5ju-27" value="The networking thread is started again this time sending &lt;font color=&quot;#149446&quot;&gt;Sub=&lt;/font&gt;&lt;font color=&quot;#986801&quot;&gt;Crypted&lt;/font&gt;. The main thread waits for its completion." style="rounded=1;whiteSpace=wrap;html=1;fillColor=#d5e8d4;strokeColor=#82b366;" vertex="1" parent="1">
          <mxGeometry x="853.75" y="1193.78" width="146.25" height="77" as="geometry" />
        </mxCell>
        <mxCell id="GJyvk0EuF5OCGgXkt5ju-29" value="The current executable is deleted." style="rounded=1;whiteSpace=wrap;html=1;fillColor=#f8cecc;strokeColor=#b85450;" vertex="1" parent="1">
          <mxGeometry x="1024.9999999999995" y="1202.2782352941176" width="120" height="60" as="geometry" />
        </mxCell>
        <mxCell id="GJyvk0EuF5OCGgXkt5ju-33" style="edgeStyle=orthogonalEdgeStyle;rounded=0;orthogonalLoop=1;jettySize=auto;html=1;exitX=1;exitY=0.25;exitDx=0;exitDy=0;entryX=0;entryY=0.25;entryDx=0;entryDy=0;" edge="1" parent="1" source="GJyvk0EuF5OCGgXkt5ju-31" target="GJyvk0EuF5OCGgXkt5ju-34">
          <mxGeometry relative="1" as="geometry">
            <mxPoint x="689.9999999999995" y="453.17647058823536" as="targetPoint" />
          </mxGeometry>
        </mxCell>
        <mxCell id="GJyvk0EuF5OCGgXkt5ju-31" value="&lt;span style=&quot;color: rgb(0, 0, 0); font-family: Helvetica; font-size: 12px; font-style: normal; font-variant-ligatures: normal; font-variant-caps: normal; letter-spacing: normal; orphans: 2; text-align: center; text-indent: 0px; text-transform: none; widows: 2; word-spacing: 0px; -webkit-text-stroke-width: 0px; text-decoration-thickness: initial; text-decoration-style: initial; text-decoration-color: initial; float: none; display: inline !important;&quot;&gt;&lt;b&gt;Otherwise &lt;/b&gt;&lt;/span&gt;&lt;span style=&quot;color: rgb(0, 0, 0); font-family: Helvetica; font-size: 12px; font-style: normal; font-variant-ligatures: normal; font-variant-caps: normal; font-weight: 400; letter-spacing: normal; orphans: 2; text-align: center; text-indent: 0px; text-transform: none; widows: 2; word-spacing: 0px; -webkit-text-stroke-width: 0px; text-decoration-thickness: initial; text-decoration-style: initial; text-decoration-color: initial; float: none; display: inline !important;&quot;&gt;if there is no file with the&amp;nbsp;&lt;span style=&quot;border-color: var(--border-color);&quot;&gt;&lt;/span&gt;&lt;b style=&quot;border-color: var(--border-color);&quot;&gt;same name&lt;/b&gt;&lt;span style=&quot;border-color: var(--border-color);&quot;&gt;&lt;span style=&quot;border-color: var(--border-color);&quot;&gt;&amp;nbsp;&lt;/span&gt;as the&lt;span style=&quot;border-color: var(--border-color);&quot;&gt;&amp;nbsp;&lt;/span&gt;&lt;/span&gt;&lt;b style=&quot;border-color: var(--border-color);&quot;&gt;current executable&lt;/b&gt;&lt;br&gt;in the&lt;span&gt;&amp;nbsp;&lt;/span&gt;&lt;/span&gt;&lt;b style=&quot;border-color: var(--border-color); color: rgb(0, 0, 0); font-family: Helvetica; font-size: 12px; font-style: normal; font-variant-ligatures: normal; font-variant-caps: normal; letter-spacing: normal; orphans: 2; text-align: center; text-indent: 0px; text-transform: none; widows: 2; word-spacing: 0px; -webkit-text-stroke-width: 0px; text-decoration-thickness: initial; text-decoration-style: initial; text-decoration-color: initial;&quot;&gt;Windows&lt;span&gt;&amp;nbsp;&lt;/span&gt;&lt;/b&gt;&lt;span style=&quot;color: rgb(0, 0, 0); font-family: Helvetica; font-size: 12px; font-style: normal; font-variant-ligatures: normal; font-variant-caps: normal; font-weight: 400; letter-spacing: normal; orphans: 2; text-align: center; text-indent: 0px; text-transform: none; widows: 2; word-spacing: 0px; -webkit-text-stroke-width: 0px; text-decoration-thickness: initial; text-decoration-style: initial; text-decoration-color: initial; float: none; display: inline !important;&quot;&gt;or&lt;span&gt;&amp;nbsp;&lt;/span&gt;&lt;/span&gt;&lt;b style=&quot;border-color: var(--border-color); color: rgb(0, 0, 0); font-family: Helvetica; font-size: 12px; font-style: normal; font-variant-ligatures: normal; font-variant-caps: normal; letter-spacing: normal; orphans: 2; text-align: center; text-indent: 0px; text-transform: none; widows: 2; word-spacing: 0px; -webkit-text-stroke-width: 0px; text-decoration-thickness: initial; text-decoration-style: initial; text-decoration-color: initial;&quot;&gt;Documents&lt;span&gt;&amp;nbsp;&lt;/span&gt;&lt;/b&gt;&lt;span style=&quot;color: rgb(0, 0, 0); font-family: Helvetica; font-size: 12px; font-style: normal; font-variant-ligatures: normal; font-variant-caps: normal; font-weight: 400; letter-spacing: normal; orphans: 2; text-align: center; text-indent: 0px; text-transform: none; widows: 2; word-spacing: 0px; -webkit-text-stroke-width: 0px; text-decoration-thickness: initial; text-decoration-style: initial; text-decoration-color: initial; float: none; display: inline !important;&quot;&gt;folder (depending on&lt;span&gt;&amp;nbsp;&lt;/span&gt;&lt;/span&gt;&lt;b style=&quot;border-color: var(--border-color); color: rgb(0, 0, 0); font-family: Helvetica; font-size: 12px; font-style: normal; font-variant-ligatures: normal; font-variant-caps: normal; letter-spacing: normal; orphans: 2; text-align: center; text-indent: 0px; text-transform: none; widows: 2; word-spacing: 0px; -webkit-text-stroke-width: 0px; text-decoration-thickness: initial; text-decoration-style: initial; text-decoration-color: initial;&quot;&gt;admin rights&lt;/b&gt;&lt;span style=&quot;color: rgb(0, 0, 0); font-family: Helvetica; font-size: 12px; font-style: normal; font-variant-ligatures: normal; font-variant-caps: normal; font-weight: 400; letter-spacing: normal; orphans: 2; text-align: center; text-indent: 0px; text-transform: none; widows: 2; word-spacing: 0px; -webkit-text-stroke-width: 0px; text-decoration-thickness: initial; text-decoration-style: initial; text-decoration-color: initial; float: none; display: inline !important;&quot;&gt;)&lt;/span&gt;&lt;span style=&quot;color: rgb(0, 0, 0); font-family: Helvetica; font-size: 12px; font-style: normal; font-variant-ligatures: normal; font-variant-caps: normal; font-weight: 400; letter-spacing: normal; orphans: 2; text-align: center; text-indent: 0px; text-transform: none; widows: 2; word-spacing: 0px; -webkit-text-stroke-width: 0px; text-decoration-thickness: initial; text-decoration-style: initial; text-decoration-color: initial; float: none; display: inline !important;&quot;&gt;, a&lt;span&gt;&amp;nbsp;&lt;/span&gt;&lt;/span&gt;&lt;b style=&quot;border-color: var(--border-color); color: rgb(0, 0, 0); font-family: Helvetica; font-size: 12px; font-style: normal; font-variant-ligatures: normal; font-variant-caps: normal; letter-spacing: normal; orphans: 2; text-align: center; text-indent: 0px; text-transform: none; widows: 2; word-spacing: 0px; -webkit-text-stroke-width: 0px; text-decoration-thickness: initial; text-decoration-style: initial; text-decoration-color: initial;&quot;&gt;new executable&lt;/b&gt;&lt;span style=&quot;color: rgb(0, 0, 0); font-family: Helvetica; font-size: 12px; font-style: normal; font-variant-ligatures: normal; font-variant-caps: normal; font-weight: 400; letter-spacing: normal; orphans: 2; text-align: center; text-indent: 0px; text-transform: none; widows: 2; word-spacing: 0px; -webkit-text-stroke-width: 0px; text-decoration-thickness: initial; text-decoration-style: initial; text-decoration-color: initial; float: none; display: inline !important;&quot;&gt;&lt;span&gt;&amp;nbsp;&lt;/span&gt;is created with a&lt;span&gt;&amp;nbsp;&lt;/span&gt;&lt;/span&gt;&lt;b style=&quot;border-color: var(--border-color); color: rgb(0, 0, 0); font-family: Helvetica; font-size: 12px; font-style: normal; font-variant-ligatures: normal; font-variant-caps: normal; letter-spacing: normal; orphans: 2; text-align: center; text-indent: 0px; text-transform: none; widows: 2; word-spacing: 0px; -webkit-text-stroke-width: 0px; text-decoration-thickness: initial; text-decoration-style: initial; text-decoration-color: initial;&quot;&gt;random name&lt;/b&gt;&lt;span style=&quot;color: rgb(0, 0, 0); font-family: Helvetica; font-size: 12px; font-style: normal; font-variant-ligatures: normal; font-variant-caps: normal; font-weight: 400; letter-spacing: normal; orphans: 2; text-align: center; text-indent: 0px; text-transform: none; widows: 2; word-spacing: 0px; -webkit-text-stroke-width: 0px; text-decoration-thickness: initial; text-decoration-style: initial; text-decoration-color: initial; float: none; display: inline !important;&quot;&gt;&lt;span&gt;&amp;nbsp;&lt;/span&gt;and then&lt;span&gt;&amp;nbsp;&lt;/span&gt;&lt;/span&gt;&lt;b style=&quot;border-color: var(--border-color); color: rgb(0, 0, 0); font-family: Helvetica; font-size: 12px; font-style: normal; font-variant-ligatures: normal; font-variant-caps: normal; letter-spacing: normal; orphans: 2; text-align: center; text-indent: 0px; text-transform: none; widows: 2; word-spacing: 0px; -webkit-text-stroke-width: 0px; text-decoration-thickness: initial; text-decoration-style: initial; text-decoration-color: initial;&quot;&gt;ran.&lt;/b&gt;&lt;span style=&quot;color: rgb(0, 0, 0); font-family: Helvetica; font-size: 12px; font-style: normal; font-variant-ligatures: normal; font-variant-caps: normal; font-weight: 400; letter-spacing: normal; orphans: 2; text-align: center; text-indent: 0px; text-transform: none; widows: 2; word-spacing: 0px; -webkit-text-stroke-width: 0px; text-decoration-thickness: initial; text-decoration-style: initial; text-decoration-color: initial; float: none; display: inline !important;&quot;&gt;&amp;nbsp;The current executable is&lt;span&gt;&amp;nbsp;&lt;/span&gt;&lt;/span&gt;&lt;b style=&quot;border-color: var(--border-color); color: rgb(0, 0, 0); font-family: Helvetica; font-size: 12px; font-style: normal; font-variant-ligatures: normal; font-variant-caps: normal; letter-spacing: normal; orphans: 2; text-align: center; text-indent: 0px; text-transform: none; widows: 2; word-spacing: 0px; -webkit-text-stroke-width: 0px; text-decoration-thickness: initial; text-decoration-style: initial; text-decoration-color: initial;&quot;&gt;deleted&lt;/b&gt;&lt;span style=&quot;color: rgb(0, 0, 0); font-family: Helvetica; font-size: 12px; font-style: normal; font-variant-ligatures: normal; font-variant-caps: normal; font-weight: 400; letter-spacing: normal; orphans: 2; text-align: center; text-indent: 0px; text-transform: none; widows: 2; word-spacing: 0px; -webkit-text-stroke-width: 0px; text-decoration-thickness: initial; text-decoration-style: initial; text-decoration-color: initial; float: none; display: inline !important;&quot;&gt;.&lt;/span&gt;" style="rounded=1;whiteSpace=wrap;html=1;fillColor=#d5e8d4;strokeColor=#82b366;" vertex="1" parent="1">
          <mxGeometry x="414" y="422.99999999999994" width="230" height="118.56" as="geometry" />
        </mxCell>
        <mxCell id="GJyvk0EuF5OCGgXkt5ju-35" style="edgeStyle=orthogonalEdgeStyle;rounded=0;orthogonalLoop=1;jettySize=auto;html=1;exitX=0.5;exitY=1;exitDx=0;exitDy=0;entryX=0.5;entryY=0;entryDx=0;entryDy=0;" edge="1" parent="1" source="GJyvk0EuF5OCGgXkt5ju-34" target="Y6lYQcWZ7hb8fJEgUK95-19">
          <mxGeometry relative="1" as="geometry">
            <Array as="points">
              <mxPoint x="740" y="560" />
              <mxPoint x="110" y="560" />
            </Array>
          </mxGeometry>
        </mxCell>
        <mxCell id="GJyvk0EuF5OCGgXkt5ju-34" value="The current process continues execution if there is a file of the name name in one of &lt;b&gt;Windows &lt;/b&gt;or &lt;b&gt;Documents&lt;/b&gt;" style="rounded=1;whiteSpace=wrap;html=1;fillColor=#d5e8d4;strokeColor=#82b366;" vertex="1" parent="1">
          <mxGeometry x="680" y="429.78" width="120" height="90" as="geometry" />
        </mxCell>
        <mxCell id="GJyvk0EuF5OCGgXkt5ju-37" value="" style="edgeStyle=orthogonalEdgeStyle;rounded=0;orthogonalLoop=1;jettySize=auto;html=1;exitX=1;exitY=0.5;exitDx=0;exitDy=0;" edge="1" parent="1" source="Y6lYQcWZ7hb8fJEgUK95-1" target="GJyvk0EuF5OCGgXkt5ju-36">
          <mxGeometry relative="1" as="geometry">
            <mxPoint x="348" y="270" as="targetPoint" />
            <mxPoint x="186" y="270" as="sourcePoint" />
          </mxGeometry>
        </mxCell>
        <mxCell id="GJyvk0EuF5OCGgXkt5ju-36" value="AutoOpen is ran and Word and Excel protections are attempted to be disabled by writing to the registry" style="rounded=1;whiteSpace=wrap;html=1;fillColor=#dae8fc;strokeColor=#6c8ebf;" vertex="1" parent="1">
          <mxGeometry x="215.38" y="238" width="151.25" height="65" as="geometry" />
        </mxCell>
      </root>
    </mxGraphModel>
  </diagram>
</mxfile>
